<svg xmlns="http://www.w3.org/2000/svg" viewBox="0 0 32 10" width="32" height="10">
  <path fill="#1434CB" d="M12.4 10L10.2 0H6.8l-1.9 8.2c0 .1-.1.2-.2.2h-3l.4-1.9H0l-.4 1.9h4.3l2.8-8.4h3.6l1.2 5.5.9-5.5h3zM32 3c0-1.2-1.8-1.3-1.8-1.9 0-.2.2-.4.6-.4h1.1L32.2 0h-1.8c-.8 0-1.4.3-1.8.8-.5.8-.4 2.2.8 2.8 1.1.5 1.3.8 1.3 1.3 0 .4-.5.6-1 .6h-1.5l-.3 1.5h1.9c1 .1 1.9-.3 2.4-1M22.9 10h3l1.9-10h-2.8c-.5 0-.9.2-1 .5l-3.2 7.1-1.4-5.2c-.1-.3-.3-.4-.6-.4h-3.2l-.2.8c.4.1.8.3 1.2.6.2.2.3.5.4.8l2 6.8h-3l2.2-10h2.9L22.9 10zM19.1 2.8c-.7-.3-1.5-.4-2.2-.4-2.5 0-4.3 1.3-4.3 3.2 0 1.4 1.3 2.2 2.2 2.6 1 .4 1.3.7 1.3 1.1 0 .6-.7.9-1.4.9-1 0-1.6-.2-2.3-.5l-.3-1.5c.7.4 1.6.6 2.4.6 2.6 0 4.4-1.3 4.4-3.3 0-1.1-1-1.9-2.1-2.4-.9-.4-1.4-.7-1.4-1.1 0-.5.6-.9 1.4-.9.8.1 1.4.2 2 .5l.3-1.6"/>
</svg>
